<svg xmlns="http://www.w3.org/2000/svg" version="1.1" xmlns:xlink="http://www.w3.org/1999/xlink" xmlns:svgjs="http://svgjs.dev/svgjs" width="1500" height="1500" viewBox="0 0 1500 1500"><rect width="1500" height="1500" fill="#ffffff"></rect><g transform="matrix(0.6666666666666666,0,0,0.6666666666666666,249.39393939393938,657.0460402493825)"><svg viewBox="0 0 396 74" data-background-color="#ffffff" preserveAspectRatio="xMidYMid meet" height="280" width="1500" xmlns="http://www.w3.org/2000/svg" xmlns:xlink="http://www.w3.org/1999/xlink"><g id="tight-bounds" transform="matrix(1,0,0,1,0.2400000000000091,-0.15039452743380366)"><svg viewBox="0 0 395.52 74.3007890548676" height="74.3007890548676" width="395.52"><g><svg viewBox="0 0 507.0417483766181 95.25081408814309" height="74.3007890548676" width="395.52"><g transform="matrix(1,0,0,1,0,13.16418631753642)"><svg viewBox="0 0 395.52 68.92244145307025" height="68.92244145307025" width="395.52"><g id="textblocktransform"><svg viewBox="0 0 395.52 68.92244145307025" height="68.92244145307025" width="395.52" id="textblock"><g><svg viewBox="0 0 395.52 68.92244145307025" height="68.92244145307025" width="395.52"><g transform="matrix(1,0,0,1,0,0)"><svg width="395.52" viewBox="3.4 -36.5 271.13 47.25" height="68.92244145307025" data-palette-color="#8b3c7f"><path d="M28-9.95L32-8.45Q30.95-5.65 29-3.63 27.05-1.6 24.43-0.55 21.8 0.5 18.7 0.5L18.7 0.5Q14 0.5 10.58-1.58 7.15-3.65 5.28-7.45 3.4-11.25 3.4-16.5L3.4-16.5Q3.4-21.75 5.28-25.55 7.15-29.35 10.58-31.43 14-33.5 18.6-33.5L18.6-33.5Q21.8-33.5 24.3-32.63 26.8-31.75 28.58-30.03 30.35-28.3 31.4-25.8L31.4-25.8 27.45-23.95Q26.35-26.8 24.28-28.28 22.2-29.75 18.9-29.75L18.9-29.75Q15.55-29.75 13-28.18 10.45-26.6 9.03-23.65 7.6-20.7 7.6-16.5L7.6-16.5Q7.6-12.35 8.95-9.38 10.3-6.4 12.8-4.83 15.3-3.25 18.7-3.25L18.7-3.25Q22-3.25 24.45-4.93 26.9-6.6 28-9.95L28-9.95ZM49.3-25.5L49.3-25.5Q52.85-25.5 55.57-23.95 58.3-22.4 59.85-19.48 61.4-16.55 61.4-12.5L61.4-12.5Q61.4-8.45 59.85-5.53 58.3-2.6 55.57-1.05 52.85 0.5 49.3 0.5L49.3 0.5Q45.8 0.5 43.05-1.05 40.3-2.6 38.75-5.53 37.2-8.45 37.2-12.5L37.2-12.5Q37.2-16.55 38.75-19.48 40.3-22.4 43.05-23.95 45.8-25.5 49.3-25.5ZM49.3-22.05L49.3-22.05Q46.75-22.05 44.95-20.9 43.15-19.75 42.17-17.63 41.2-15.5 41.2-12.5L41.2-12.5Q41.2-9.55 42.17-7.4 43.15-5.25 44.95-4.1 46.75-2.95 49.3-2.95L49.3-2.95Q51.85-2.95 53.65-4.1 55.45-5.25 56.42-7.4 57.4-9.55 57.4-12.5L57.4-12.5Q57.4-15.5 56.42-17.63 55.45-19.75 53.65-20.9 51.85-22.05 49.3-22.05ZM78 0.5L78 0.5Q75.6 0.5 73.47-0.4 71.35-1.3 70.02-3.33 68.7-5.35 68.7-8.6L68.7-8.6 68.7-25 72.7-25 72.7-9.65Q72.7-5.85 74.35-4.42 76-3 79-3L79-3Q80.4-3 81.75-3.48 83.1-3.95 84.17-4.98 85.25-6 85.87-7.6 86.5-9.2 86.5-11.4L86.5-11.4 86.5-25 90.5-25 90.5 0 87 0 86.75-3.8Q85.45-1.55 83.22-0.53 81 0.5 78 0.5ZM103.79 0L99.79 0 99.79-25 103.04-25 103.59-20.9Q104.64-23.2 106.67-24.35 108.69-25.5 111.59-25.5L111.59-25.5Q112.24-25.5 113.02-25.4 113.79-25.3 114.34-25L114.34-25 113.64-21.35Q113.09-21.55 112.44-21.65 111.79-21.75 110.59-21.75L110.59-21.75Q109.04-21.75 107.47-20.85 105.89-19.95 104.84-18.13 103.79-16.3 103.79-13.5L103.79-13.5 103.79 0ZM129.19 0.5L129.19 0.5Q125.54 0.5 122.47-1.05 119.39-2.6 117.74-5.45L117.74-5.45 121.14-7.9Q122.24-5.6 124.37-4.3 126.49-3 129.49-3L129.49-3Q132.14-3 133.64-4.03 135.14-5.05 135.14-6.7L135.14-6.7Q135.14-7.75 134.47-8.63 133.79-9.5 131.89-9.9L131.89-9.9 125.89-11.15Q122.24-11.9 120.67-13.65 119.09-15.4 119.09-18L119.09-18Q119.09-20.05 120.27-21.75 121.44-23.45 123.62-24.48 125.79-25.5 128.74-25.5L128.74-25.5Q132.44-25.5 134.99-24.05 137.54-22.6 138.79-19.95L138.79-19.95 135.44-17.75Q134.59-19.95 132.69-20.98 130.79-22 128.74-22L128.74-22Q126.94-22 125.67-21.5 124.39-21 123.72-20.13 123.04-19.25 123.04-18.15L123.04-18.15Q123.04-17.05 123.79-16.13 124.54-15.2 126.59-14.8L126.59-14.8 132.84-13.5Q136.34-12.8 137.74-11.2 139.14-9.6 139.14-7.3L139.14-7.3Q139.14-4.95 137.89-3.18 136.64-1.4 134.39-0.45 132.14 0.5 129.19 0.5ZM161.14-9.25L161.14-16.15Q161.14-18.95 159.64-20.48 158.14-22 155.39-22L155.39-22Q152.79-22 150.99-20.88 149.19-19.75 148.34-17.25L148.34-17.25 145.09-19.25Q146.09-22.05 148.79-23.78 151.49-25.5 155.49-25.5L155.49-25.5Q158.19-25.5 160.39-24.58 162.59-23.65 163.86-21.78 165.14-19.9 165.14-16.95L165.14-16.95 165.14-4.85Q165.14-3.05 167.04-3.05L167.04-3.05Q167.99-3.05 168.89-3.3L168.89-3.3 168.69-0.15Q167.69 0.35 166.09 0.35L166.09 0.35Q164.64 0.35 163.49-0.2 162.34-0.75 161.69-1.88 161.04-3 161.04-4.7L161.04-4.7 161.04-5.2 162.04-5.05Q161.44-3.1 159.99-1.88 158.54-0.65 156.74-0.08 154.94 0.5 153.19 0.5L153.19 0.5Q150.99 0.5 149.09-0.25 147.19-1 146.06-2.53 144.94-4.05 144.94-6.3L144.94-6.3Q144.94-9.1 146.81-10.93 148.69-12.75 152.04-13.4L152.04-13.4 161.94-15.35 161.94-12.05 153.89-10.4Q151.44-9.9 150.24-9 149.04-8.1 149.04-6.5L149.04-6.5Q149.04-4.95 150.26-3.98 151.49-3 153.74-3L153.74-3Q155.19-3 156.51-3.38 157.84-3.75 158.89-4.53 159.94-5.3 160.54-6.48 161.14-7.65 161.14-9.25L161.14-9.25ZM174.64-36.5L178.64-36.5 178.64-6.35Q178.64-4.45 179.34-3.73 180.04-3 181.59-3L181.59-3Q182.59-3 183.24-3.15 183.89-3.3 184.99-3.7L184.99-3.7 184.34-0.2Q183.54 0.15 182.59 0.33 181.64 0.5 180.64 0.5L180.64 0.5Q177.59 0.5 176.11-1.15 174.64-2.8 174.64-6.2L174.64-6.2 174.64-36.5ZM206.38-25L210.68-25 198.93 4.2Q197.98 6.65 196.86 8.08 195.73 9.5 194.36 10.13 192.98 10.75 191.18 10.75L191.18 10.75Q189.48 10.75 188.06 10.28 186.63 9.8 185.53 9L185.53 9 186.63 5.5Q187.63 6.4 188.76 6.83 189.88 7.25 190.98 7.25L190.98 7.25Q192.28 7.25 193.43 6.45 194.58 5.65 195.53 3.2L195.53 3.2 196.83-0.05 194.33-6 186.38-25 190.93-25 197.18-8.7 198.73-4.25 200.53-9.2 206.38-25ZM224.93 0.5L224.93 0.5Q221.28 0.5 218.21-1.05 215.13-2.6 213.48-5.45L213.48-5.45 216.88-7.9Q217.98-5.6 220.11-4.3 222.23-3 225.23-3L225.23-3Q227.88-3 229.38-4.03 230.88-5.05 230.88-6.7L230.88-6.7Q230.88-7.75 230.21-8.63 229.53-9.5 227.63-9.9L227.63-9.9 221.63-11.15Q217.98-11.9 216.41-13.65 214.83-15.4 214.83-18L214.83-18Q214.83-20.05 216.01-21.75 217.18-23.45 219.36-24.48 221.53-25.5 224.48-25.5L224.48-25.5Q228.18-25.5 230.73-24.05 233.28-22.6 234.53-19.95L234.53-19.95 231.18-17.75Q230.33-19.95 228.43-20.98 226.53-22 224.48-22L224.48-22Q222.68-22 221.41-21.5 220.13-21 219.46-20.13 218.78-19.25 218.78-18.15L218.78-18.15Q218.78-17.05 219.53-16.13 220.28-15.2 222.33-14.8L222.33-14.8 228.58-13.5Q232.08-12.8 233.48-11.2 234.88-9.6 234.88-7.3L234.88-7.3Q234.88-4.95 233.63-3.18 232.38-1.4 230.13-0.45 227.88 0.5 224.93 0.5ZM244.28-29.8L244.28-29.8Q242.93-29.8 242.1-30.63 241.28-31.45 241.28-32.8L241.28-32.8Q241.28-34.15 242.1-34.98 242.93-35.8 244.28-35.8L244.28-35.8Q245.63-35.8 246.45-34.98 247.28-34.15 247.28-32.8L247.28-32.8Q247.28-31.45 246.45-30.63 245.63-29.8 244.28-29.8ZM242.28-25L246.28-25 246.28 0 242.28 0 242.28-25ZM264.58 0.5L264.58 0.5Q260.93 0.5 257.85-1.05 254.78-2.6 253.13-5.45L253.13-5.45 256.53-7.9Q257.63-5.6 259.75-4.3 261.88-3 264.88-3L264.88-3Q267.53-3 269.03-4.03 270.53-5.05 270.53-6.7L270.53-6.7Q270.53-7.75 269.85-8.63 269.18-9.5 267.28-9.9L267.28-9.9 261.28-11.15Q257.63-11.9 256.05-13.65 254.48-15.4 254.48-18L254.48-18Q254.48-20.05 255.65-21.75 256.83-23.45 259-24.48 261.18-25.5 264.13-25.5L264.13-25.5Q267.83-25.5 270.38-24.05 272.93-22.6 274.18-19.95L274.18-19.95 270.83-17.75Q269.98-19.95 268.08-20.98 266.18-22 264.13-22L264.13-22Q262.33-22 261.05-21.5 259.78-21 259.1-20.13 258.43-19.25 258.43-18.15L258.43-18.15Q258.43-17.05 259.18-16.13 259.93-15.2 261.98-14.8L261.98-14.8 268.23-13.5Q271.73-12.8 273.13-11.2 274.53-9.6 274.53-7.3L274.53-7.3Q274.53-4.95 273.28-3.18 272.03-1.4 269.78-0.45 267.53 0.5 264.58 0.5Z" opacity="1" transform="matrix(1,0,0,1,0,0)" fill="#8b3c7f" class="wordmark-text-0" data-fill-palette-color="primary" id="text-0"></path></svg></g></svg></g></svg></g></svg></g><g transform="matrix(1,0,0,1,411.790934288475,0)"><svg viewBox="0 0 95.25081408814309 95.25081408814309" height="95.25081408814309" width="95.25081408814309"><g data-palette-color="#8b3c7f"><rect width="26.03522251742578" height="95.25081408814309" fill="#8b3c7f" stroke="transparent" data-fill-palette-color="accent" x="0" fill-opacity="1"></rect><rect width="26.03522251742578" height="95.25081408814309" fill="#8b3c7f" stroke="transparent" data-fill-palette-color="accent" x="31.750271362714365" fill-opacity="0.75"></rect><rect width="26.03522251742578" height="95.25081408814309" fill="#8b3c7f" stroke="transparent" data-fill-palette-color="accent" x="63.50054272542873" fill-opacity="0.5"></rect></g></svg></g></svg></g><defs></defs></svg><rect width="395.52" height="74.3007890548676" fill="none" stroke="none" visibility="hidden"></rect></g></svg></g></svg>